<svg width="100" height="100" viewBox="0 0 100 100" fill="none" xmlns="http://www.w3.org/2000/svg">
<rect width="100" height="100" fill="white"/>
<path d="M21.024 46.816C21.5787 46.4107 22.08 45.92 22.528 45.344C22.976 44.7467 23.3493 44.448 23.648 44.448C23.968 44.448 24.128 44.9173 24.128 45.856C24.128 46.7733 23.8613 47.648 23.328 48.48C22.816 49.2907 22.1333 49.9733 21.28 50.528C19.5307 51.68 17.4613 52.256 15.072 52.256C12.1707 52.256 9.92 51.5307 8.32 50.08C6.72 48.6293 5.92 46.6133 5.92 44.032C5.92 40.8533 6.688 37.8347 8.224 34.976C8.736 34.0373 9.312 33.1733 9.952 32.384C9.46133 31.808 9.06667 31.2107 8.768 30.592C8.49067 29.952 8.352 29.472 8.352 29.152C8.352 28.576 8.56533 28.288 8.992 28.288C9.29067 28.3093 9.632 28.512 10.016 28.896L11.008 29.856C11.264 30.112 11.5307 30.3253 11.808 30.496C13.92 28.704 16.192 27.808 18.624 27.808C21.0773 27.808 22.6667 28.4907 23.392 29.856C23.648 30.368 23.776 30.9973 23.776 31.744C23.776 32.8747 23.2853 33.824 22.304 34.592C21.3227 35.36 20 35.744 18.336 35.744C16.6933 35.744 14.9867 35.4027 13.216 34.72C11.7013 37.3013 10.944 40 10.944 42.816C10.944 46.72 12.5013 48.672 15.616 48.672C17.536 48.672 19.3387 48.0533 21.024 46.816ZM14.752 32.736C15.84 33.0987 17.024 33.28 18.304 33.28C19.584 33.28 20.224 32.928 20.224 32.224C20.224 31.392 19.7013 30.976 18.656 30.976C17.2267 30.976 15.9253 31.5627 14.752 32.736ZM45.7263 45.504C45.7263 47.4453 45.9929 48.416 46.5263 48.416C46.8463 48.416 47.2409 48.2133 47.7103 47.808C48.1796 47.4027 48.6489 46.9653 49.1183 46.496C49.5876 46.0053 50.0143 45.5573 50.3983 45.152C50.8036 44.7467 51.0809 44.544 51.2303 44.544C51.5289 44.544 51.6783 44.9067 51.6783 45.632C51.6783 47.1253 50.9209 48.576 49.4063 49.984C47.9129 51.392 46.3129 52.096 44.6063 52.096C43.5396 52.1173 42.8143 51.6587 42.4303 50.72C42.1316 49.9733 41.9823 48.7787 41.9823 47.136C40.5529 50.4427 38.4303 52.096 35.6143 52.096C33.7156 52.096 32.2009 51.6267 31.0703 50.688C29.9609 49.728 29.4063 48.224 29.4063 46.176C29.4063 45.6853 29.6729 44.3947 30.2063 42.304C30.7609 40.192 31.1983 38.464 31.5183 37.12C31.8383 35.7547 31.9983 34.6773 31.9983 33.888C31.9983 32.16 31.5609 31.296 30.6863 31.296C30.3876 31.296 30.1103 31.3813 29.8543 31.552C29.6196 31.7227 29.3743 31.904 29.1183 32.096C28.8836 32.288 28.6383 32.4693 28.3823 32.64C28.1263 32.8107 27.8276 32.896 27.4863 32.896C27.1663 32.896 27.0063 32.608 27.0063 32.032C27.0063 30.8587 27.5503 29.8987 28.6383 29.152C29.6836 28.384 30.9316 28 32.3823 28C33.8329 28 34.9209 28.5973 35.6463 29.792C36.2009 30.6667 36.4783 31.6587 36.4783 32.768C36.4783 33.856 36.3609 34.9227 36.1263 35.968C35.8916 36.992 35.6356 38.048 35.3583 39.136C35.1023 40.224 34.8569 41.3333 34.6223 42.464C34.3876 43.5733 34.2703 44.4907 34.2703 45.216C34.2703 45.92 34.3023 46.3893 34.3663 46.624C34.6649 47.5627 35.3903 48.032 36.5423 48.032C38.0356 48.032 39.3369 47.0933 40.4463 45.216C41.3849 43.6373 42.0463 41.7173 42.4303 39.456L42.6223 38.016L42.4943 31.328C42.4943 30.3467 42.9209 29.536 43.7743 28.896C44.6276 28.256 45.5236 27.9467 46.4623 27.968C46.8463 27.968 47.0916 28.256 47.1983 28.832C47.3049 29.3867 47.3583 30.0053 47.3583 30.688C47.3583 31.3707 47.3156 32.032 47.2303 32.672C47.1449 33.2907 47.0383 34.016 46.9103 34.848C46.8036 35.6587 46.6756 36.5333 46.5263 37.472C45.9716 41.3333 45.7049 44.0107 45.7263 45.504ZM85.7418 44.448C86.1044 44.448 86.2858 44.9387 86.2858 45.92C86.2858 46.4533 86.0618 47.104 85.6138 47.872C85.1658 48.6187 84.5791 49.312 83.8538 49.952C83.1498 50.5707 82.3604 51.0827 81.4858 51.488C80.6111 51.8933 79.6831 52.096 78.7018 52.096C77.7418 52.096 76.9844 51.7867 76.4298 51.168C75.8964 50.528 75.6298 49.824 75.6298 49.056C75.6298 48.2667 75.7578 47.3813 76.0138 46.4C76.2698 45.4187 76.5471 44.3947 76.8458 43.328C77.6564 40.4907 78.0724 38.496 78.0938 37.344C78.0938 36.8533 78.0298 36.48 77.9018 36.224C77.7738 35.9467 77.5284 35.808 77.1658 35.808C76.5258 35.808 75.8431 36.192 75.1178 36.96C74.3924 37.728 73.7098 38.7093 73.0698 39.904C71.5978 42.6347 70.8191 45.3013 70.7338 47.904C70.7764 48.2027 70.8191 48.5013 70.8618 48.8C70.9044 49.0987 70.9258 49.4187 70.9258 49.76C70.9258 50.4427 70.5844 51.072 69.9018 51.648C69.2404 52.2027 68.4938 52.48 67.6618 52.48C67.1711 52.48 66.8084 52.2453 66.5738 51.776C66.3391 51.2853 66.2218 50.688 66.2218 49.984C66.2218 49.28 66.3818 48.32 66.7018 47.104C67.0218 45.888 67.3738 44.5973 67.7578 43.232C68.7818 39.6267 69.3044 36.9387 69.3258 35.168C69.3258 34.272 69.2084 33.568 68.9738 33.056C68.7604 32.544 68.3338 32.288 67.6938 32.288C66.5418 32.288 65.4004 33.1093 64.2698 34.752C63.1391 36.3947 62.1258 38.944 61.2298 42.4C60.9951 43.296 60.8138 44.0747 60.6858 44.736L60.6538 45.344C61.0591 47.3067 61.2618 48.5867 61.2618 49.184C61.2618 50.4213 60.8244 51.2533 59.9498 51.68C59.5444 51.872 59.1498 52.0533 58.7658 52.224C58.4031 52.3947 58.0084 52.48 57.5818 52.48C56.5151 52.48 55.9818 51.4667 55.9818 49.44C55.9818 47.392 56.5471 43.4027 57.6778 37.472C58.0831 35.3387 58.2858 34.144 58.2858 33.888C58.2858 32.16 57.8484 31.296 56.9738 31.296C56.6751 31.296 56.3978 31.3813 56.1418 31.552C55.9071 31.7227 55.6618 31.904 55.4058 32.096C55.1711 32.288 54.9258 32.4693 54.6698 32.64C54.4138 32.8107 54.1151 32.896 53.7738 32.896C53.4538 32.896 53.2938 32.608 53.2938 32.032C53.2938 30.8587 53.8378 29.8987 54.9258 29.152C55.9711 28.384 57.2404 28 58.7338 28C60.6538 28 61.7844 28.896 62.1258 30.688C62.2111 31.2213 62.2751 31.7867 62.3178 32.384C63.8964 29.4187 65.8911 27.936 68.3018 27.936C70.9258 27.936 72.4298 29.1947 72.8138 31.712C72.9418 32.4373 72.9951 33.216 72.9738 34.048V34.304C74.3604 32.384 76.0031 31.424 77.9018 31.424C80.5898 31.424 81.9338 33.0453 81.9338 36.288C81.9338 37.696 81.7098 39.3493 81.2618 41.248C80.8351 43.1253 80.5151 44.48 80.3018 45.312C80.1098 46.1227 80.0138 46.752 80.0138 47.2C80.0138 48.0107 80.2911 48.416 80.8458 48.416C81.4218 48.416 82.7764 47.3067 84.9098 45.088C85.2938 44.6613 85.5711 44.448 85.7418 44.448ZM93.148 51.264C93.148 51.8613 92.7213 52.16 91.868 52.16C90.524 52.16 89.6067 51.904 89.116 51.392C88.6253 50.8587 88.38 49.9733 88.38 48.736C88.4013 46.816 88.924 43.744 89.948 39.52C90.9933 35.296 91.9747 32.16 92.892 30.112C93.1267 29.5787 93.4573 29.0773 93.884 28.608C94.3107 28.1173 94.876 27.872 95.58 27.872C95.8787 27.872 96.124 28.0533 96.316 28.416C96.5293 28.7787 96.636 29.1947 96.636 29.664C96.636 30.1333 96.5507 30.8373 96.38 31.776C96.2093 32.6933 95.996 33.7493 95.74 34.944C95.484 36.1387 95.196 37.4293 94.876 38.816C93.724 44.0853 93.148 48.2347 93.148 51.264Z" fill="black"/>
<rect x="5" y="60" width="91" height="17" fill="url(#paint0_linear_49_739)"/>
<defs>
<linearGradient id="paint0_linear_49_739" x1="5" y1="68.5" x2="98.7576" y2="68.5" gradientUnits="userSpaceOnUse">
<stop offset="0.120192" stop-color="#CC3266"/>
<stop offset="0.240385" stop-color="#CC8455"/>
<stop offset="0.701923" stop-color="#9CCC6B"/>
<stop offset="1" stop-color="#187A7A"/>
</linearGradient>
</defs>
</svg>
